<svg xmlns="http://www.w3.org/2000/svg" width="144" height="144" viewBox="0 0 512 512">
    <defs>
      <linearGradient id="bgGradient" x1="0%" y1="0%" x2="100%" y2="100%">
        <stop offset="0%" style="stop-color:#dc2626;stop-opacity:1" />
        <stop offset="100%" style="stop-color:#2563eb;stop-opacity:1" />
      </linearGradient>
      <linearGradient id="cardGradient" x1="0%" y1="0%" x2="100%" y2="100%">
        <stop offset="0%" style="stop-color:#ffffff;stop-opacity:0.95" />
        <stop offset="100%" style="stop-color:#f8fafc;stop-opacity:0.9" />
      </linearGradient>
    </defs>

    <!-- Background circle -->
    <circle cx="256" cy="256" r="240" fill="url(#bgGradient)"/>

    <!-- Main card/document -->
    <rect x="140" y="160" width="232" height="192" rx="12" fill="url(#cardGradient)" stroke="#e2e8f0" stroke-width="1"/>

    <!-- Header line -->
    <rect x="160" y="180" width="192" height="12" rx="6" fill="#1e293b"/>

    <!-- Content lines -->
    <rect x="160" y="210" width="150" height="8" rx="4" fill="#64748b"/>
    <rect x="160" y="230" width="170" height="8" rx="4" fill="#64748b"/>
    <rect x="160" y="250" width="120" height="8" rx="4" fill="#64748b"/>

    <!-- HR icon - person silhouette -->
    <circle cx="190" cy="290" r="18" fill="#2563eb"/>
    <path d="M 172 320 Q 172 310 190 310 Q 208 310 208 320 L 208 330 L 172 330 Z" fill="#2563eb"/>

    <!-- Checkmark -->
    <circle cx="320" cy="290" r="20" fill="#22c55e"/>
    <path d="M 310 290 L 316 296 L 330 282" stroke="#ffffff" stroke-width="3" fill="none" stroke-linecap="round" stroke-linejoin="round"/>

    <!-- Small decorative elements -->
    <rect x="240" y="285" width="60" height="6" rx="3" fill="#1e293b"/>
    <rect x="240" y="295" width="45" height="4" rx="2" fill="#64748b"/>
  </svg>